<svg width="33" height="32" viewBox="0 0 33 32" fill="none" xmlns="http://www.w3.org/2000/svg">
<path d="M31.5886 0.585841C30.8032 -0.19528 29.5186 -0.19528 28.7332 0.585841L24.6398 4.65977C22.9627 3.55033 21.0382 2.99961 19.1056 2.99961C16.5326 2.99961 13.9265 3.97625 11.9958 5.92921L5.96249 11.9295C2.5217 15.3475 2.0976 20.6329 4.68213 24.512L0.589097 28.5859C-0.196366 29.367 -0.196366 30.6326 0.589097 31.4141C0.981989 31.8048 1.49651 32 2.01104 32C2.52589 32 3.04009 31.8048 3.43298 31.4141L7.52601 27.3401C9.20344 28.4496 11.1396 29.0003 13.0722 29.0003C15.6117 29.0003 18.2178 28.0237 20.1819 26.0707L26.2037 20.0707C29.6445 16.6524 30.0686 11.367 27.4837 7.48794L31.5886 3.41401C32.3741 2.63289 32.3741 1.36696 31.5886 0.585841ZM25.127 13C25.127 14.6016 24.4986 16.1094 23.3598 17.2422L17.338 23.2422C16.1951 24.375 14.6496 25 13.0722 25C12.1609 25 11.2889 24.7776 10.4877 24.3984L13.4554 21.4141C14.2409 20.6329 14.2409 19.3673 13.4554 18.5859C12.7031 17.8048 11.4305 17.8048 10.645 18.5859L7.6441 21.5702C7.25926 20.7773 7.03916 19.91 7.03916 19C7.03916 17.3984 7.66759 15.8905 8.80669 14.7577L14.8066 8.7577C15.9457 7.6249 17.495 6.99994 19.1056 6.99994C20.0168 6.99994 20.8847 7.22234 21.6862 7.60154L18.6264 10.6483C17.841 11.4294 17.841 12.695 18.6264 13.4764C19.0193 13.8672 19.5335 14.0624 20.0484 14.0624C20.559 14.0624 21.0736 13.8672 21.4661 13.4764L24.5224 10.4297C24.9069 11.2223 25.127 12.0899 25.127 13Z" fill="blue"/>
</svg>
